inDegrees=no
num_controls=7
num_derivatives=13
num_iterations=49
num_multipliers=7
num_parameters=0
num_slacks=7
num_states=26
objective=0.471675
objective_accelerations=0.059567
objective_balance=0.000938
objective_effort=0.016477
objective_height=0.385596
objective_ligament=0.009097
solver_duration=761.659428
status=Solve_Succeeded
success=true
DataType=double
version=3
OpenSimVersion=4.5
endheader
time	/jointset/ground_pelvis/pelvis_tilt/value	/jointset/ground_pelvis/pelvis_tx/value	/jointset/ground_pelvis/pelvis_ty/value	/jointset/hip_l/hip_flexion_l/value	/jointset/hip_l/hip_adduction_l/value	/jointset/hip_l/hip_rotation_l/value	/jointset/back/lumbar_extension/value	/jointset/patellofemoral_l/patellar_flexion_l/value	/jointset/knee_l/knee_flexion_l/value	/jointset/knee_l/knee_adduction_l/value	/jointset/knee_l/knee_rotation_l/value	/jointset/ankle_l/ankle_angle_l/value	/jointset/subtalar_l/subtalar_angle_l/value	/jointset/ground_pelvis/pelvis_tilt/speed	/jointset/ground_pelvis/pelvis_tx/speed	/jointset/ground_pelvis/pelvis_ty/speed	/jointset/hip_l/hip_flexion_l/speed	/jointset/hip_l/hip_adduction_l/speed	/jointset/hip_l/hip_rotation_l/speed	/jointset/back/lumbar_extension/speed	/jointset/patellofemoral_l/patellar_flexion_l/speed	/jointset/knee_l/knee_flexion_l/speed	/jointset/knee_l/knee_adduction_l/speed	/jointset/knee_l/knee_rotation_l/speed	/jointset/ankle_l/ankle_angle_l/speed	/jointset/subtalar_l/subtalar_angle_l/speed	/forceset/tau_hip_flexion_l	/forceset/tau_hip_adduction_l	/forceset/tau_hip_rotation_l	/forceset/tau_knee_flexion_l	/forceset/tau_ankle_angle_l	/forceset/tau_subtalar_angle_l	/forceset/tau_lumbar_extension	lambda_cid13_p0	lambda_cid13_p1	lambda_cid13_p2	lambda_cid13_p3	lambda_cid13_p4	lambda_cid13_p5	lambda_cid14_p0	/jointset/ground_pelvis/pelvis_tilt/accel	/jointset/ground_pelvis/pelvis_tx/accel	/jointset/ground_pelvis/pelvis_ty/accel	/jointset/hip_l/hip_flexion_l/accel	/jointset/hip_l/hip_adduction_l/accel	/jointset/hip_l/hip_rotation_l/accel	/jointset/back/lumbar_extension/accel	/jointset/patellofemoral_l/patellar_flexion_l/accel	/jointset/knee_l/knee_flexion_l/accel	/jointset/knee_l/knee_adduction_l/accel	/jointset/knee_l/knee_rotation_l/accel	/jointset/ankle_l/ankle_angle_l/accel	/jointset/subtalar_l/subtalar_angle_l/accel	gamma_cid13_p0	gamma_cid13_p1	gamma_cid13_p2	gamma_cid13_p3	gamma_cid13_p4	gamma_cid13_p5	gamma_cid14_p0
0	0.05356145757034105	0.1051683903381145	0.904654483413538	0.1266922784136757	-0.3547524539487497	-0.2364834703147072	-0.2144969558742783	0.20515450701421	0.2051545070141877	-0.1428801978896421	-0.1639353798559773	0.09024313228550125	0.09577404957038566	0	0	0	0	0	0	0	0	0	0	0	0	0	0.1198353641208165	-0.02912099814555414	-0.009087869177077648	-0.2459732490368255	0.1812332294624793	-0.09611374272308151	-0.05286045371194596	26.0585558715968	38.80559973190103	-8.32504224701113	-11.89777767946333	-441.0503987867926	-33.31272316760495	-26.14108995140968	-3.991087470386179	-1.395753402271766	-0.8840349286584355	11.87072147628257	-0.486582066678421	2.955976062198177	-3.884563066039446	9.587308091542848	9.587308091542294	1.472896935994431	-0.7896485965909434	2.421291223545048	0.1947315926131856	-4.581404701521276e-09	2.477282738358022e-07	1.785801429740417e-07	-2.765219360220804e-08	1.604937129712972e-07	-5.842379237811941e-08	-8.654574755027552e-09
0.01	0.05336591732276935	0.1050988886354593	0.9046118943157285	0.1272713284149394	-0.3547727006544654	-0.2363339278342851	-0.2146932044550878	0.2056154214882739	0.2056154214883094	-0.1428035228736907	-0.1639649591815014	0.09035711923307718	0.0957859848518728	-0.0393661110576298	-0.01390154983245606	-0.008455975466855318	0.115501393081258	-0.003725173464890245	0.02957126842727542	-0.03877277183504988	0.09106913668903623	0.09106913668903351	0.01568950784885356	-0.005706199901621765	0.02228453886888018	0.002583258999491328	0.1183264391508147	-0.03662264712046397	-0.008720703264075268	-0.2440353815248962	0.174426542600531	-0.08714321472417852	-0.05141492797631735	24.27507034820294	34.99294437747838	-7.455592311518974	-10.48700056852689	-443.5060431253656	-41.38788927552721	-26.14154684392715	-3.948095813670879	-1.387542700838887	-0.8170701426122087	11.3435460607305	-0.2669296278073794	2.907100285150934	-3.802092591881852	8.699654469951041	8.699654469951197	1.670215870404287	-0.4296327112607939	2.055116463299243	0.3194929685921063	-1.632982306735943e-08	4.466170906120238e-07	1.423920375669275e-08	3.296221984607513e-08	-7.590694253098602e-08	9.266036295471487e-08	4.366984870999203e-08
0.02	0.05276897138653768	0.1048903340490572	0.9044866072058643	0.1289961319143086	-0.3548204880230895	-0.2358987930591486	-0.2152628724241921	0.206953614931716	0.2069536149317077	-0.1425593051470061	-0.1640453059108602	0.09067856781828643	0.09582962670634992	-0.08028113772384082	-0.0278105767493792	-0.01653960241096068	0.2291506996298794	-0.005508132586295161	0.05711845894088394	-0.07468387765578706	0.1754557938727331	0.1754557938727299	0.03350854214064881	-0.01015348077577579	0.04149232752732653	0.006341314597980984	0.1168175141803921	-0.0441242960953345	-0.008353537351420087	-0.2420975140133473	0.1676198557384294	-0.07817268672527564	-0.04996940224086082	22.53301231626608	31.18328524817708	-6.598328967230376	-9.090824588104535	-445.2043139891603	-49.30070452824526	-26.1422326346891	-4.300870592101757	-1.397248819165704	-0.8095652241084191	11.5003041697553	-0.09813919798138494	2.551160479464813	-3.312229863176486	8.250812190475058	8.250812190474955	1.898802224582707	-0.5378647910975071	1.805941181457688	0.4296909124126239	-2.807824143319758e-08	6.455059073882453e-07	-1.501017354606562e-07	9.357663329435829e-08	-3.123075980332692e-07	2.437445182875491e-07	9.59942721750116e-08
0.03	0.05176001205435792	0.1045431093699	0.9042815667672922	0.1318473072398519	-0.3548804930425392	-0.235196412003515	-0.2161800462680295	0.2091124296581607	0.2091124296581706	-0.1421320069285197	-0.1641671653708982	0.09118185120361416	0.09591385818586164	-0.121218486245001	-0.04158680965762734	-0.02447460325059602	0.3405642987563225	-0.006589702653180537	0.08331912759642589	-0.1086079362509425	0.2561107311652407	0.2561107311652389	0.05167524439834272	-0.01421004642812512	0.05913073585468073	0.01039021641552558	0.1126963941792479	-0.03980227559542945	-0.007635733202338732	-0.2372091906527343	0.162221183016856	-0.07964975852273065	-0.04694857758065468	20.76394213272759	31.97122774977233	-6.537418949818408	-8.125583654302655	-444.3537407562726	-46.76845968591227	-26.14237549191136	-3.946323749887489	-1.360659154065979	-0.7864486225707485	10.88387888198655	-0.1277609966836563	2.648770675499426	-3.411050627387905	7.943352051031953	7.943352051032462	1.734318851512725	-0.3383386590432102	1.737764556787318	0.375192065290295	-3.372724986763048e-08	6.772621883988156e-07	-8.869245486422953e-08	9.308359813455879e-08	-3.992080051766107e-07	1.898905549169056e-07	9.56528007294329e-08
0.04	0.05035044788337805	0.1040595526361768	0.9039969800985862	0.1357970167761848	-0.354954232779765	-0.2342331741379284	-0.2174321720517747	0.2120718972680035	0.2120718972679959	-0.1415312987623852	-0.1643293477288087	0.09186051345189758	0.09603511913332184	-0.1604021054765873	-0.05507698766257713	-0.03244884843778451	0.448857541798697	-0.008255076145720295	0.1092898209279772	-0.1416742656341397	0.3355863705534751	0.3355863705534785	0.06819053166203236	-0.01821806035006919	0.07656810011854137	0.01374720818766208	0.1085752741776315	-0.03548025509553101	-0.006917929053344428	-0.2323208672924037	0.1568225102951844	-0.0811268303202211	-0.04392775292074769	19.03095597797233	32.7643566934097	-6.49047751921415	-7.159701281654582	-442.8265101545306	-44.07864219230048	-26.14153055244507	-3.950124734186362	-1.340037838506502	-0.8174140936190246	10.87623295294161	-0.214899883112293	2.505165414666692	-3.140684020784465	8.014952609620467	8.014952609621169	1.568519225781792	-0.5281544450165756	1.765732368758441	0.291308903330795	-3.925049727254987e-08	7.055724377441149e-07	-2.262853056030226e-08	9.133061558077819e-08	-4.830259329723452e-07	1.318110633255717e-07	9.422543454342948e-08
